PathFileType	4	(X/Y/Z)	E:\Qualisys_Data\Carbon_Farble_Plate\Data\Amateur_Runner\S2\T1\S2T1V13_c3d.trc
DataRate	CameraRate	NumFrames	NumMarkers	Units	OrigDataRate	OrigDataStartFrame	OrigNumFrames
200.000000	200.000000	4	39	mm	200.000000	231	308
Frame#	Time	LSHO			RSHO			LICST			RICST			LASIS			LHEEL			RASIS			LTROC			RTROC			SACR			LTH1			LSK4			LTH2			LTH3			RHM5			LSK2			LTH4			RTH1			LTOE			RTH2			RTH3			RTH4			LLEP			RLEP			LSK1			LSK3			RSK1			LHM5			RSK2			LFT1			RSK3			RSK4			LLME			RLME			RTOE			RHEEL			RFT1			RFT2			LFT2			
		X1	Y1	Z1	X2	Y2	Z2	X3	Y3	Z3	X4	Y4	Z4	X5	Y5	Z5	X6	Y6	Z6	X7	Y7	Z7	X8	Y8	Z8	X9	Y9	Z9	X10	Y10	Z10	X11	Y11	Z11	X12	Y12	Z12	X13	Y13	Z13	X14	Y14	Z14	X15	Y15	Z15	X16	Y16	Z16	X17	Y17	Z17	X18	Y18	Z18	X19	Y19	Z19	X20	Y20	Z20	X21	Y21	Z21	X22	Y22	Z22	X23	Y23	Z23	X24	Y24	Z24	X25	Y25	Z25	X26	Y26	Z26	X27	Y27	Z27	X28	Y28	Z28	X29	Y29	Z29	X30	Y30	Z30	X31	Y31	Z31	X32	Y32	Z32	X33	Y33	Z33	X34	Y34	Z34	X35	Y35	Z35	X36	Y36	Z36	X37	Y37	Z37	X38	Y38	Z38	X39	Y39	Z39	

232	1.155	1585.1572265625	1469.0263671875	-441.7776489257812	1690.517456054688	1454.290405273438	-158.1431121826172	1598.739868164062	1003.0302734375	-426.6481018066406	1639.069458007812	994.8389892578124	-129.8965148925781	1660.579345703125	956.3394775390624	-411.2515869140625	1727.01123046875	73.53062438964844	-286.2531127929688	1693.08837890625	945.9554443359376	-156.6673278808594	1540.878784179688	875.7704467773438	-428.5636291503906	1538.20947265625	907.160888671875	-114.9628601074219	1523.749389648438	1039.45166015625	-264.1729125976562	1728.178588867188	655.3651733398438	-436.8060607910156	1705.793701171875	270.3491516113281	-387.058837890625	1648.447998046875	629.7705688476562	-431.7691955566406	1759.56982421875	563.0913696289062	-399.3580932617188	1040.39501953125	286.7297973632812	-112.6920852661133	1697.488647460938	367.2351989746094	-404.8737487792969	1677.71630859375	539.1276245117188	-397.3607482910156	1594.616088867188	624.6218872070312	-108.5652465820312	1953.144775390625	151.4019622802734	-328.9960632324219	1521.658325195312	648.0179443359375	-105.9564361572266	1565.116088867188	528.76318359375	-116.0319137573242	1489.041748046875	555.2156372070312	-121.4517440795898	1730.139404296875	507.0173645019531	-395.4925537109375	1498.265869140625	517.3163452148438	-111.6008224487305	1775.36376953125	375.9269714355469	-395.7985534667969	1784.256591796875	277.511474609375	-381.2153625488281	1404.063842773438	443.7353210449219	-105.1862716674805	1909.9775390625	103.6988525390625	-384.7201843261719	1382.759033203125	521.1328125	-109.5567169189453	1751.352661132812	58.59043121337891	-257.4180908203125	1305.764038085938	416.2724609375	-113.1084289550781	1287.728393554688	493.3990173339844	-121.4978103637695	1776.142211914062	96.0773696899414	-348.9851379394531	1117.264282226562	404.9659729003906	-147.3927307128906	1061.638793945312	218.399658203125	-160.2144317626953	1119.070922851562	449.78076171875	-215.2366943359375	1099.185302734375	434.8584899902344	-248.3058776855469	1092.383666992188	459.828125	-194.8062591552734	1738.263916015625	44.94713592529297	-308.9319763183594
233	1.16	1602.187622070312	1463.41796875	-442.6632995605469	1707.025756835938	1449.600219726562	-158.6797180175781	1614.461181640625	998.3571166992188	-426.3277587890625	1655.465454101562	990.0823974609376	-129.6998443603516	1676.59375	952.4532470703124	-411.28759765625	1736.526245117188	73.00127410888672	-283.8561706542969	1709.569213867188	941.5880737304688	-156.6017150878906	1557.723388671875	871.0614624023438	-428.5095825195312	1555.219360351562	901.373046875	-114.3667602539062	1540.27001953125	1035.019775390625	-263.8710327148438	1746.530395507812	653.1597290039062	-434.1661987304688	1719.830322265625	266.1648559570312	-385.2779235839844	1667.14208984375	627.574951171875	-429.3001708984375	1777.704223632812	560.8425903320312	-397.0663452148438	1059.44091796875	293.7718200683594	-111.6242828369141	1712.721557617188	363.7359619140625	-403.5175170898438	1696.039794921875	536.994140625	-396.5230407714844	1615.846801757812	619.2081298828125	-107.2401809692383	1964.5849609375	143.2652130126953	-324.5476684570312	1542.466674804688	641.5910034179688	-105.4302978515625	1587.763671875	522.4998168945312	-114.0141067504883	1511.538696289062	548.34033203125	-120.3663787841797	1747.937377929688	503.6054382324219	-394.1689453125	1521.629272460938	510.8565979003906	-110.2524948120117	1790.594482421875	371.1228942871094	-394.1842651367188	1798.54931640625	272.7062377929688	-379.58056640625	1425.919311523438	439.7652282714844	-104.2660675048828	1920.285766601562	97.44893646240234	-381.3270874023438	1407.28125	517.6182861328125	-108.8466339111328	1759.703857421875	56.89368057250977	-255.1047058105469	1327.217651367188	414.8513793945312	-112.7207565307617	1311.776123046875	492.5266723632812	-120.8150405883789	1787.17431640625	91.67179107666016	-346.2380676269531	1139.127197265625	409.5563659667969	-147.5871887207031	1079.39306640625	224.2758026123047	-159.3569946289062	1142.444213867188	453.5794677734375	-216.3367462158203	1122.769165039062	438.5170593261719	-248.8952331542969	1115.995727539062	464.66552734375	-195.7476348876953	1747.16943359375	43.5604133605957	-307.01123046875
234	1.165	1619.390014648438	1457.985107421875	-444.2647094726562	1723.318115234375	1444.693725585938	-159.1091766357422	1630.523559570312	994.0765380859376	-426.5974426269531	1672.29736328125	985.2230834960938	-129.7252960205078	1692.568237304688	947.8983154296876	-411.593017578125	1745.238403320312	72.1667709350586	-280.6721801757812	1726.068725585938	936.6412963867188	-156.7527618408203	1573.998657226562	865.9419555664062	-427.9684753417969	1572.744018554688	895.5672607421875	-113.6305847167969	1556.3525390625	1029.756713867188	-263.4378051757812	1764.537841796875	650.8915405273438	-431.2653503417969	1733.888427734375	262.3927917480469	-383.3055419921875	1685.808349609375	625.777099609375	-426.0620422363281	1795.465209960938	558.1283569335938	-395.21044921875	1079.211181640625	299.7175598144531	-111.9073715209961	1728.056274414062	359.5668640136719	-401.9114379882812	1713.933471679688	534.1546020507812	-395.3720397949219	1637.236206054688	613.9706420898438	-105.8595886230469	1973.69140625	132.9190979003906	-320.0916137695312	1563.136962890625	635.1686401367188	-104.7633666992188	1610.760986328125	516.7393798828125	-112.2871932983398	1533.939208984375	541.022705078125	-119.4104309082031	1765.115234375	500.1046752929688	-392.8824768066406	1544.837158203125	504.7114562988281	-108.0042877197266	1805.893798828125	366.2250061035156	-392.7039794921875	1812.344482421875	267.6288757324219	-377.6914978027344	1448.51953125	435.52099609375	-103.1508178710938	1928.250732421875	89.63074493408203	-377.5113830566406	1431.980102539062	513.9691772460938	-107.8379287719727	1767.0888671875	53.23482894897461	-252.42041015625	1349.348999023438	413.3367919921875	-111.8604278564453	1336.0771484375	491.5528869628906	-120.5310821533203	1795.881225585938	88.73809051513672	-344.8918762207031	1161.247192382812	413.5580749511719	-148.3439331054688	1098.349975585938	229.3836975097656	-158.2915496826172	1166.523681640625	457.2889709472656	-217.1012878417969	1146.47802734375	442.116455078125	-249.4348602294922	1140.02685546875	468.8782348632812	-196.5615234375	1752.973999023438	44.17429351806641	-304.0923767089844
235	1.17	1636.845703125	1452.21337890625	-445.3095397949219	1739.48486328125	1439.839721679688	-159.6999053955078	1646.156860351562	989.2068481445312	-426.5771179199219	1688.453125	980.4103393554688	-129.7111511230469	1708.482177734375	943.5493774414062	-411.7640686035156	1753.904541015625	75.47073364257812	-278.169921875	1742.180908203125	931.6718139648438	-156.9575805664062	1590.309204101562	861.0479736328125	-427.6934204101562	1589.652954101562	889.3043212890625	-112.9430847167969	1572.415283203125	1024.47998046875	-263.5126037597656	1782.490844726562	648.38330078125	-427.9114990234375	1746.63818359375	258.5389099121094	-382.1866455078125	1704.1806640625	623.6333618164062	-423.0167541503906	1813.063598632812	555.1614379882812	-393.6851501464844	1100.234252929688	305.5332946777344	-112.1599349975586	1743.069580078125	355.8677368164062	-400.9673156738281	1732.147338867188	530.8878784179688	-394.7347717285156	1658.379272460938	608.4376831054688	-104.7991714477539	1981.83984375	120.6170196533203	-315.9947204589844	1583.845947265625	628.2332763671875	-104.2762451171875	1633.422485351562	510.6929016113281	-110.5439910888672	1556.5439453125	533.454345703125	-118.0380630493164	1782.59814453125	496.5421752929688	-391.8543395996094	1568.726928710938	498.037109375	-106.6384887695312	1821.138305664062	360.5592956542969	-390.9746398925781	1825.531982421875	262.0413208007812	-375.9248962402344	1471.496948242188	431.471923828125	-102.0293197631836	1934.24462890625	80.6434326171875	-374.22265625	1457.100830078125	510.03857421875	-107.1877288818359	1772.544067382812	51.33011627197266	-251.2171630859375	1371.575805664062	411.8514099121094	-111.0169143676758	1360.149047851562	489.9960021972656	-120.0441436767578	1802.623901367188	86.94683074951172	-343.078125	1184.510986328125	417.8760375976562	-148.5599975585938	1118.505737304688	234.51025390625	-157.4884033203125	1190.652099609375	460.6069946289062	-217.8776245117188	1170.73681640625	445.3855590820312	-250.4698791503906	1164.344482421875	473.0064086914062	-197.6931304931641	1757.770629882812	45.61490631103516	-303.709228515625
